<?xml version="1.0" encoding="UTF-8" standalone="no"?>
<!-- Created with Inkscape (http://www.inkscape.org/) -->

<svg
   xmlns:dc="http://purl.org/dc/elements/1.1/"
   xmlns:cc="http://creativecommons.org/ns#"
   xmlns:rdf="http://www.w3.org/1999/02/22-rdf-syntax-ns#"
   xmlns:svg="http://www.w3.org/2000/svg"
   xmlns="http://www.w3.org/2000/svg"
   xmlns:sodipodi="http://sodipodi.sourceforge.net/DTD/sodipodi-0.dtd"
   xmlns:inkscape="http://www.inkscape.org/namespaces/inkscape"
   width="796.25262"
   height="791.4989"
   id="svg2"
   version="1.1"
   inkscape:version="0.48.4 r9939"
   sodipodi:docname="New document 1">
  <defs
     id="defs4" />
  <sodipodi:namedview
     id="base"
     pagecolor="#ffffff"
     bordercolor="#666666"
     borderopacity="1.0"
     inkscape:pageopacity="0.0"
     inkscape:pageshadow="2"
     inkscape:zoom="0.35"
     inkscape:cx="521.60714"
     inkscape:cy="177.53512"
     inkscape:document-units="px"
     inkscape:current-layer="layer1"
     showgrid="false"
     fit-margin-top="0"
     fit-margin-left="0"
     fit-margin-right="0"
     fit-margin-bottom="0"
     inkscape:window-width="1366"
     inkscape:window-height="706"
     inkscape:window-x="-8"
     inkscape:window-y="-8"
     inkscape:window-maximized="1" />
  <metadata
     id="metadata7">
    <rdf:RDF>
      <cc:Work
         rdf:about="">
        <dc:format>image/svg+xml</dc:format>
        <dc:type
           rdf:resource="http://purl.org/dc/dcmitype/StillImage" />
        <dc:title></dc:title>
      </cc:Work>
    </rdf:RDF>
  </metadata>
  <g
     inkscape:label="Layer 1"
     inkscape:groupmode="layer"
     id="layer1"
     transform="translate(146.60714,81.601613)">
    <g
       id="g3481"
       transform="matrix(4.7537471,0,0,4.7537471,-146.60714,-81.601613)">
      <path
         style="fill:#070809"
         d="m 167.5,83.25 c 0,45.97771 -37.49615,83.25 -83.75,83.25 C 37.496152,166.5 0,129.22771 0,83.25 0,37.272295 37.496152,0 83.75,0 130.00385,0 167.5,37.272295 167.5,83.25 z"
         id="ellipse3467"
         inkscape:connector-curvature="0" />
      <path
         style="fill:#81a3c9"
         d="m 149,83.5 c 0,35.89851 -29.54921,65 -66,65 -36.450793,0 -66,-29.10149 -66,-65 0,-35.898509 29.549207,-65 66,-65 36.45079,0 66,29.101491 66,65 z"
         id="ellipse3469"
         inkscape:connector-curvature="0" />
      <path
         style="fill:#070909"
         d="m 114.46875,228.53125 c -47.311363,0 -85.65625,37.90812 -85.65625,84.65625 0,46.74813 38.344887,84.65625 85.65625,84.65625 47.31136,0 85.65625,-37.90812 85.65625,-84.65625 0,-46.74813 -38.34489,-84.65625 -85.65625,-84.65625 z"
         transform="matrix(0.24514153,0,0,0.24514153,35.939498,-7.5253301)"
         id="ellipse3471"
         inkscape:connector-curvature="0" />
      <path
         id="path3473"
         d="m 138.625,48.125 c 0,0 4.625,6.5 5.625,10.875 1,4.375 -38.75,64.625 -38.75,64.625 H 39.75 l 2.875,-23.75 h 65.5 l 30.5,-51.75 z"
         inkscape:connector-curvature="0"
         style="fill:#fdfdfc" />
    </g>
  </g>
</svg>
